<?xml version="1.0" standalone="no"?>
<!DOCTYPE svg PUBLIC "-//W3C//DTD SVG 20010904//EN"
 "http://www.w3.org/TR/2001/REC-SVG-20010904/DTD/svg10.dtd">
<svg version="1.0" xmlns="http://www.w3.org/2000/svg"
 width="361.000000pt" height="361.000000pt" viewBox="0 0 361.000000 361.000000"
 preserveAspectRatio="xMidYMid meet">
<metadata>
Created by potrace 1.14, written by Peter Selinger 2001-2017
</metadata>
<g transform="translate(0.000000,361.000000) scale(0.100000,-0.100000)"
fill="#000000" stroke="none">
<path d="M0 1805 l0 -1805 1805 0 1805 0 0 1805 0 1805 -1805 0 -1805 0 0
-1805z m2060 1285 c89 -15 220 -55 307 -95 78 -36 221 -126 263 -166 14 -13
39 -35 55 -49 17 -14 50 -49 74 -77 33 -40 51 -53 71 -53 23 0 29 -8 54 -72
16 -40 38 -95 51 -123 12 -27 32 -81 45 -120 12 -38 26 -74 30 -80 7 -10 74
-213 76 -230 0 -5 7 -23 14 -40 8 -16 14 -34 14 -40 1 -5 7 -16 14 -23 7 -8
10 -25 6 -40 -4 -21 -3 -24 5 -12 9 13 11 12 12 -5 1 -11 1 -28 1 -38 -1 -10
3 -15 8 -12 13 8 13 -1 -1 -27 -9 -17 -7 -29 11 -60 l22 -40 -26 17 c-24 16
-26 16 -20 1 3 -9 10 -16 15 -16 6 0 8 -68 7 -162 l-3 -162 -25 -7 c-20 -6
-16 -7 20 -10 47 -2 -98 -15 -227 -19 -50 -2 -73 -7 -73 -15 0 -7 -7 -18 -15
-25 -17 -14 -21 -35 -5 -25 6 3 7 -1 4 -10 -6 -15 -8 -15 -23 0 -11 12 -13 19
-4 22 7 2 9 12 6 21 -4 15 -3 15 6 2 13 -18 14 -12 11 61 -1 45 0 47 32 53 18
4 45 6 60 6 40 0 61 26 55 69 -5 37 -41 145 -78 239 l-21 52 -193 0 c-142 0
-195 -3 -203 -12 -19 -25 -93 -271 -88 -293 8 -31 62 -54 141 -62 l65 -6 0
-38 0 -39 -265 0 -265 0 0 39 0 38 53 7 c71 9 132 41 157 81 11 18 87 230 169
471 229 674 230 677 241 684 13 8 0 24 -85 96 -173 149 -308 217 -535 271 -56
14 -114 18 -230 17 -134 0 -168 -4 -253 -27 -189 -51 -337 -130 -495 -267 -44
-38 -85 -70 -90 -70 -5 0 -9 -7 -9 -15 0 -12 19 -15 106 -15 58 0 111 -4 117
-8 6 -4 19 -61 28 -127 9 -66 18 -128 20 -137 3 -15 -3 -18 -39 -18 -41 0 -43
2 -78 58 -43 70 -91 116 -136 131 -49 16 -82 14 -106 -9 -15 -14 -24 -16 -35
-9 -13 9 -12 10 2 5 22 -7 33 10 12 18 -9 3 -49 6 -90 6 -70 0 -74 -1 -80 -25
-3 -14 -4 -127 -2 -253 l4 -227 139 3 c77 2 149 6 160 9 31 9 56 35 75 79 15
34 23 41 45 40 l27 -1 2 -173 1 -172 -30 0 c-26 0 -33 6 -55 53 -33 68 -56 76
-232 76 l-138 1 0 -237 c0 -131 3 -248 6 -260 7 -26 68 -53 119 -53 34 0 35
-1 35 -40 l0 -40 -52 0 c-107 0 -252 13 -233 21 17 6 15 8 -10 9 -18 2 -23 4
-12 7 16 4 17 38 15 609 -3 531 -1 604 12 605 8 1 -1 5 -20 9 -34 7 -33 7 15
9 46 2 48 3 22 13 -56 20 -12 28 158 28 107 0 176 4 180 10 4 6 11 8 16 5 5
-3 6 1 3 9 -4 11 0 16 11 16 9 0 14 4 11 9 -8 13 104 123 186 184 142 105 287
170 458 207 98 21 316 26 420 10z m-60 -490 l0 -37 -60 -12 c-33 -7 -66 -19
-75 -27 -22 -23 -23 -1065 -1 -1084 8 -6 42 -17 75 -23 l61 -12 0 -37 0 -38
-300 0 -300 0 0 40 c0 35 3 40 23 40 35 0 95 19 112 36 13 13 15 81 15 537 0
287 -4 527 -8 533 -12 18 -44 31 -94 38 -55 8 -57 11 -51 52 l5 31 299 0 299
1 0 -38z m1191 -860 c5 0 9 -5 9 -12 0 -7 -10 -3 -21 9 -16 15 -19 27 -13 40
7 15 8 14 12 -9 2 -16 8 -28 13 -28z m27 -106 c-3 -14 -5 -12 -10 9 -3 19 -2
25 4 19 6 -6 8 -18 6 -28z m9 -56 c-3 -8 -6 -5 -6 6 -1 11 2 17 5 13 3 -3 4
-12 1 -19z m-412 -338 c4 -14 -3 -34 -24 -62 -29 -40 -43 -86 -21 -73 21 13 9
-2 -32 -40 -26 -25 -33 -28 -17 -10 50 57 18 52 -40 -7 -90 -90 -251 -204
-251 -178 0 5 4 10 8 10 13 0 143 99 204 155 68 63 108 116 91 122 -14 5 -3
28 37 74 30 34 37 35 45 9z m-1528 -32 c-19 -15 -13 -26 26 -51 15 -10 27 -26
27 -37 0 -19 -28 -41 -52 -39 -7 0 -3 4 9 9 28 11 22 29 -17 59 -34 25 -38 45
-12 60 24 15 39 13 19 -1z m158 -59 c0 -46 -3 -59 -15 -59 -12 0 -15 14 -15
63 0 52 3 63 15 60 11 -3 15 -19 15 -64z m123 33 c-3 30 -1 36 14 35 12 -1 14
-5 8 -11 -6 -6 -10 -35 -10 -65 -1 -62 4 -63 -58 15 l-22 29 2 -51 c2 -29 -1
-51 -7 -51 -6 0 -10 27 -10 61 0 34 5 64 10 69 6 4 25 -10 43 -30 l33 -38 -3
37z m336 32 c9 -3 16 -12 16 -20 0 -19 -16 -18 -24 2 -3 9 -15 14 -28 12 -41
-6 -37 -101 5 -118 l22 -9 -22 0 c-32 -1 -63 33 -63 69 0 51 47 82 94 64z
m134 -14 c5 -13 3 -13 -11 -1 -23 18 -31 -4 -25 -69 4 -42 2 -50 -12 -50 -14
0 -16 8 -13 53 4 58 -10 93 -27 67 -8 -13 -10 -13 -10 2 0 14 8 17 47 15 31
-1 48 -7 51 -17z m64 -48 c3 -59 1 -68 -14 -69 -16 -2 -18 8 -18 68 0 53 3 69
14 69 11 0 15 -18 18 -68z m128 48 c11 -11 20 -33 20 -50 0 -31 -30 -70 -54
-70 -26 0 -66 41 -66 68 0 32 8 45 35 60 29 16 42 15 65 -8z m90 1 c1 -3 12
-19 26 -36 l26 -30 -4 38 c-2 20 0 37 4 37 4 0 8 -27 8 -60 0 -33 -3 -60 -7
-60 -5 0 -19 17 -33 38 -13 20 -32 45 -42 55 -20 20 -16 39 7 30 8 -3 15 -8
15 -12z m-1430 -6 c-8 -10 -11 -31 -7 -63 6 -43 5 -45 -8 -28 -8 11 -15 39
-15 63 0 37 3 43 21 43 18 0 19 -2 9 -15z m82 -41 c3 -49 -5 -75 -18 -62 -10
11 -8 118 3 118 7 0 13 -22 15 -56z m68 -4 c0 -49 -3 -60 -16 -60 -14 0 -15 2
-3 17 8 9 10 14 4 11 -6 -4 -10 13 -10 43 0 33 4 49 13 49 8 0 12 -19 12 -60z
m59 46 c12 -14 5 -46 -10 -46 -14 0 -10 -22 8 -42 9 -10 11 -18 5 -18 -16 0
-55 44 -42 48 20 7 32 42 19 58 -6 8 -7 14 -1 14 5 0 15 -6 21 -14z m76 -46
c0 -41 -4 -60 -12 -60 -9 0 -13 19 -13 60 0 41 4 60 13 60 8 0 12 -19 12 -60z
m55 50 c0 -5 -2 -10 -4 -10 -3 0 -8 5 -11 10 -3 6 -1 10 4 10 6 0 11 -4 11
-10z m100 0 c0 -5 -2 -10 -4 -10 -3 0 -8 5 -11 10 -3 6 -1 10 4 10 6 0 11 -4
11 -10z m431 -53 l25 -63 -23 -2 c-14 -1 -23 3 -22 11 3 28 -2 37 -26 37 -14
0 -25 4 -25 9 0 5 9 7 20 4 22 -6 25 4 10 27 -8 12 -10 12 -10 1 0 -8 -2 -12
-5 -10 -8 9 7 49 19 49 6 0 23 -29 37 -63z m739 3 c0 -47 -3 -60 -15 -60 -12
0 -15 13 -15 60 0 47 3 60 15 60 12 0 15 -13 15 -60z m58 30 c4 -22 -11 -40
-33 -40 -5 0 -4 4 4 9 8 6 12 19 9 35 -4 17 -1 25 6 23 6 -2 13 -14 14 -27z
m55 -9 c-3 -21 0 -48 6 -60 7 -11 8 -21 3 -21 -17 0 -35 31 -35 60 0 24 17 60
28 60 2 0 1 -17 -2 -39z m81 8 c16 -38 11 -65 -17 -84 -31 -22 -40 -18 -16 6
21 21 22 50 4 92 -4 10 -3 17 4 17 7 0 18 -14 25 -31z m225 1 c11 -33 -2 -41
-19 -11 -12 24 -13 41 -1 41 5 0 14 -13 20 -30z m-59 -4 c0 -2 -8 -10 -17 -17
-16 -13 -17 -12 -4 4 13 16 21 21 21 13z m199 -36 c11 -24 11 -24 -3 -6 -9 11
-16 24 -16 30 0 12 5 7 19 -24z m-2244 -10 c3 -5 1 -10 -4 -10 -6 0 -11 5 -11
10 0 6 2 10 4 10 3 0 8 -4 11 -10z m2128 -20 c3 -12 0 -20 -8 -20 -8 0 -11 8
-8 20 3 11 7 20 8 20 1 0 5 -9 8 -20z m-1255 -29 c-15 -5 -19 4 -11 24 6 18 7
18 13 -1 4 -10 3 -21 -2 -23z m223 16 c-10 -9 -11 -8 -5 6 3 10 9 15 12 12 3
-3 0 -11 -7 -18z m909 8 c0 -8 -5 -15 -12 -15 -6 0 -23 -10 -37 -22 -14 -13
-10 -6 8 15 39 42 41 43 41 22z m-2000 1 c0 -3 -4 -8 -10 -11 -5 -3 -10 -1
-10 4 0 6 5 11 10 11 6 0 10 -2 10 -4z m410 -6 c0 -5 -5 -10 -11 -10 -5 0 -7
5 -4 10 3 6 8 10 11 10 2 0 4 -4 4 -10z m40 0 c0 -5 -4 -10 -10 -10 -5 0 -10
5 -10 10 0 6 5 10 10 10 6 0 10 -4 10 -10z m1030 -4 c0 -3 -4 -8 -10 -11 -5
-3 -10 -1 -10 4 0 6 5 11 10 11 6 0 10 -2 10 -4z m370 -101 c-13 -14 -18 -25
-11 -25 10 0 -26 -34 -84 -79 -20 -16 -20 -16 -1 7 23 26 11 29 -17 5 -11 -10
-17 -13 -13 -6 3 7 21 22 39 35 21 15 27 17 18 5 -7 -9 -9 -17 -3 -17 5 0 15
7 22 15 7 8 9 15 4 15 -4 0 7 16 26 35 19 19 36 35 39 35 2 0 -6 -11 -19 -25z
m50 22 c0 -2 -10 -12 -22 -23 l-23 -19 19 23 c18 21 26 27 26 19z m-196 -139
c-5 -8 -1 -9 12 -5 14 5 12 2 -6 -13 -46 -37 -194 -108 -290 -139 -93 -30
-265 -62 -325 -60 l-30 1 30 8 c17 4 50 8 75 10 35 1 41 3 25 10 -14 6 -4 7
30 5 40 -4 45 -3 25 5 -20 8 -16 9 20 5 34 -4 41 -3 30 5 -11 9 -6 10 20 5 27
-5 32 -4 20 5 -12 9 -10 11 12 7 15 -2 25 -1 23 3 -2 4 21 14 51 24 75 23 169
66 229 104 56 36 59 37 49 20z"/>
<path d="M2108 3063 c7 -3 16 -2 19 1 4 3 -2 6 -13 5 -11 0 -14 -3 -6 -6z"/>
<path d="M2148 3053 c7 -3 16 -2 19 1 4 3 -2 6 -13 5 -11 0 -14 -3 -6 -6z"/>
<path d="M2210 3035 c46 -18 64 -17 25 0 -16 8 -37 14 -45 14 -8 0 1 -7 20
-14z"/>
<path d="M2485 2905 c30 -25 59 -39 51 -26 -4 6 -22 18 -39 27 -30 14 -31 14
-12 -1z"/>
<path d="M2620 2802 c41 -39 80 -71 85 -71 13 -1 -69 77 -120 113 -24 18 -10
1 35 -42z"/>
<path d="M2598 2097 c-42 -127 -76 -233 -74 -234 3 -4 327 -5 330 -1 4 4 -167
454 -175 462 -3 3 -39 -99 -81 -227z"/>
<path d="M3130 1816 c0 -8 4 -17 9 -20 5 -4 7 3 4 14 -6 23 -13 26 -13 6z"/>
<path d="M2796 1227 c3 -10 9 -15 12 -12 3 3 0 11 -7 18 -10 9 -11 8 -5 -6z"/>
<path d="M2172 1198 c-29 -29 -3 -118 32 -105 30 12 17 117 -14 117 -3 0 -11
-5 -18 -12z"/>
<path d="M2489 853 c-13 -15 -12 -15 9 -4 23 12 28 21 13 21 -5 0 -15 -7 -22
-17z"/>
</g>
</svg>
